<svg xmlns="http://www.w3.org/2000/svg" id="b76bd6b3-ad77-41ff-b778-1d1d054fe577" data-name="Layer 1" width="570" height="511.675" viewBox="0 0 570 511.675"><path d="M880 389.837a.997.997 0 0 1-.572-.179L602.87 197.055a5.015 5.015 0 0 0-5.729.01L322.574 389.655a1 1 0 0 1-1.148-1.637l274.567-192.592a7.022 7.022 0 0 1 8.02-.013L880.57 388.017a1 1 0 0 1-.572 1.82z" transform="translate(-315 -194.163)" fill="#3f3d56"/><path fill="#e6e6e6" d="M23.264 202.502 285.276 8.319l264 208-250.5 148.5-136-31L23.264 202.502z"/><path d="M489.256 650.704h-129.44a6.047 6.047 0 1 1 0-12.095h129.44a6.047 6.047 0 1 1 0 12.095zM406.256 624.704h-46.44a6.047 6.047 0 1 1 0-12.095h46.44a6.047 6.047 0 1 1 0 12.095z" transform="translate(-315 -194.163)" fill="#007200"/><path d="M603.96 504.822a7.564 7.564 0 0 1-2.869-.562l-161.59-67.049V227.337a7.008 7.008 0 0 1 7-7h310a7.008 7.008 0 0 1 7 7v210.02l-.305.13-156.28 66.74a7.616 7.616 0 0 1-2.956.595z" transform="translate(-315 -194.163)" fill="#fff"/><path d="M603.96 505.322a8.072 8.072 0 0 1-3.06-.6L439 437.546V227.337a7.509 7.509 0 0 1 7.5-7.5h310a7.509 7.509 0 0 1 7.5 7.5v210.35l-156.888 67a8.11 8.11 0 0 1-3.152.635zM441 436.209l160.663 66.665a6.118 6.118 0 0 0 4.668-.028l155.67-66.479v-209.03a5.507 5.507 0 0 0-5.5-5.5h-310a5.507 5.507 0 0 0-5.5 5.5z" transform="translate(-315 -194.163)" fill="#3f3d56"/><path d="M878 387.837h-.2L763 436.857l-157.07 67.07a5.066 5.066 0 0 1-3.88.02L440 436.717l-117.62-48.8-.18-.08h-.2a7.008 7.008 0 0 0-7 7v304a7.008 7.008 0 0 0 7 7h556a7.008 7.008 0 0 0 7-7v-304a7.008 7.008 0 0 0-7-7zm5 311a5.002 5.002 0 0 1-5 5H322a5.002 5.002 0 0 1-5-5v-304a5.011 5.011 0 0 1 4.81-5L440 438.877l161.28 66.92a7.12 7.12 0 0 0 5.44-.03L763 439.027l115.2-49.19a5.016 5.016 0 0 1 4.8 5z" transform="translate(-315 -194.163)" fill="#3f3d56"/><path d="M602.345 445.31a27.499 27.499 0 0 1-16.546-5.497l-.296-.222-62.31-47.707a27.683 27.683 0 1 1 33.673-43.95l40.36 30.948 95.379-124.386a27.682 27.682 0 0 1 38.813-5.124l-.593.805.608-.793a27.714 27.714 0 0 1 5.124 38.813L624.369 434.506a27.694 27.694 0 0 1-22.024 10.804z" transform="translate(-315 -194.163)" fill="#007200"/></svg>