<svg xmlns="http://www.w3.org/2000/svg" id="a63b68c9-40cd-4f97-89ed-e7d494eb42f9" data-name="Layer 1" width="742.417" height="712.573" viewBox="0 0 742.417 712.573"><path id="aa38b2e7-2ea9-4025-adcf-83f87c0cfc4a" data-name="Path 968" d="M853.606 262.605h-3.9V155.628a61.915 61.915 0 0 0-61.915-61.915h-226.65a61.915 61.915 0 0 0-61.916 61.914v586.884a61.915 61.915 0 0 0 61.915 61.915h226.648a61.915 61.915 0 0 0 61.915-61.915V338.753h3.9z" transform="translate(-228.791 -93.713)" fill="#3f3d56"/><path id="f27259c2-0089-4137-bfd8-cb22dff914f1" data-name="Path 969" d="M837.006 151.481v595.175a46.959 46.959 0 0 1-46.942 46.952h-231.3a46.966 46.966 0 0 1-46.973-46.952V151.481a46.965 46.965 0 0 1 46.971-46.95h28.058a22.329 22.329 0 0 0 20.656 30.74h131.868A22.329 22.329 0 0 0 760 104.53h30.055a46.959 46.959 0 0 1 46.951 46.941z" transform="translate(-228.791 -93.713)" fill="#fff"/><circle id="fc31cc31-f989-45cc-bd1e-521a0ee1871b" data-name="Ellipse 18" cx="445.565" cy="200.129" r="96.565" fill="#C20000"/><path id="a573942c-3bf3-4c43-b474-689725a927f7" data-name="Path 39" d="M779.672 494.31H574.135a3.81 3.81 0 0 1-3.806-3.807V439.52a3.811 3.811 0 0 1 3.806-3.806h205.537a3.811 3.811 0 0 1 3.806 3.806v50.985a3.811 3.811 0 0 1-3.806 3.806zm-205.537-57.075a2.286 2.286 0 0 0-2.284 2.284v50.985a2.286 2.286 0 0 0 2.284 2.284h205.537a2.286 2.286 0 0 0 2.284-2.284V439.52a2.286 2.286 0 0 0-2.284-2.284z" transform="translate(-228.791 -93.713)" fill="#e6e6e6"/><path id="fb5feb1e-1fe2-48fa-806d-0a2b51d12b49" data-name="Path 40" d="M637.7 454.074a2.664 2.664 0 0 0 0 5.33h125.604a2.665 2.665 0 0 0 .205-5.327l-.118-.002H637.7z" transform="translate(-228.791 -93.713)" fill="#e6e6e6"/><path id="bcb9932f-0864-4b7e-b0ed-f7254bb9b8bf" data-name="Path 41" d="M637.7 470.058a2.664 2.664 0 0 0 0 5.33h125.604a2.665 2.665 0 0 0 .205-5.327l-.118-.002H637.7z" transform="translate(-228.791 -93.713)" fill="#e6e6e6"/><path id="f88e2a8b-becc-4da9-bd36-af011daaaaf2" data-name="Path 42" d="M779.672 579.29H574.135a3.81 3.81 0 0 1-3.806-3.807V524.5a3.811 3.811 0 0 1 3.806-3.806h205.537a3.811 3.811 0 0 1 3.806 3.806v50.985a3.811 3.811 0 0 1-3.806 3.805zm-205.537-57.075a2.286 2.286 0 0 0-2.284 2.284v50.985a2.286 2.286 0 0 0 2.284 2.284h205.537a2.286 2.286 0 0 0 2.284-2.284V524.5a2.286 2.286 0 0 0-2.284-2.284z" transform="translate(-228.791 -93.713)" fill="#e6e6e6"/><path id="e192d34f-2ccc-4f79-b47a-46430e4d87f6" data-name="Path 43" d="M637.7 539.33a2.664 2.664 0 0 0 0 5.33h125.604a2.665 2.665 0 0 0 .087-5.329H637.7z" transform="translate(-228.791 -93.713)" fill="#e6e6e6"/><path id="b230677c-48cc-4ee6-87d6-a753204ffe47" data-name="Path 44" d="M637.7 555.318a2.664 2.664 0 0 0 0 5.33h125.604a2.665 2.665 0 0 0 .087-5.329H637.7z" transform="translate(-228.791 -93.713)" fill="#e6e6e6"/><path id="b88a2a79-0ae3-4fd9-9894-02e0db9a2271" data-name="Path 39-2" d="M779.672 664.547H574.135a3.81 3.81 0 0 1-3.806-3.806v-50.983a3.811 3.811 0 0 1 3.806-3.806h205.537a3.811 3.811 0 0 1 3.806 3.806v50.985a3.811 3.811 0 0 1-3.806 3.806zm-205.537-57.074a2.286 2.286 0 0 0-2.284 2.284v50.985a2.286 2.286 0 0 0 2.284 2.284h205.537a2.286 2.286 0 0 0 2.284-2.284v-50.985a2.286 2.286 0 0 0-2.284-2.284z" transform="translate(-228.791 -93.713)" fill="#e6e6e6"/><path id="aa2394a9-8b56-4a12-a2cd-a583e6ea12eb" data-name="Path 40-2" d="M637.7 624.591a2.664 2.664 0 1 0 0 5.33h125.604a2.665 2.665 0 0 0 .205-5.327l-.118-.002H637.7z" transform="translate(-228.791 -93.713)" fill="#e6e6e6"/><path id="bc352cb2-8959-4b51-bd18-df6817a9a47e" data-name="Path 41-2" d="M637.7 640.578a2.664 2.664 0 0 0 0 5.33h125.604a2.665 2.665 0 0 0 .205-5.327l-.118-.002H637.7z" transform="translate(-228.791 -93.713)" fill="#e6e6e6"/><path id="b30ee82f-5b3a-4aa4-9db7-ead828191937" data-name="Path 970" d="M969.27 806.287H230.73c-1.072 0-1.939-.468-1.939-1.045s.868-1.045 1.938-1.045h738.542c1.07 0 1.938.468 1.938 1.045s-.868 1.045-1.939 1.045z" transform="translate(-228.791 -93.713)" fill="#e6e6e6"/><g id="f24cf2fd-107c-4150-a0f1-6f6b12d88bf3" data-name="Group 58"><path id="a2b576eb-bb95-4480-aa60-cd8aa023fe61" data-name="Path 438" d="M937.992 765.522a19.474 19.474 0 0 1-18.806-3.313c-6.587-5.528-8.652-14.636-10.332-23.07l-4.97-24.945 10.405 7.165c7.483 5.152 15.134 10.47 20.316 17.933s7.443 17.65 3.28 25.726" transform="translate(-228.791 -93.713)" fill="#e6e6e6"/><path id="fe1c5433-44e0-47a6-8430-329cbd7c4dea" data-name="Path 439" d="M936.385 797.459c1.31-9.542 2.657-19.206 1.738-28.85-.816-8.564-3.429-16.93-8.749-23.788a39.574 39.574 0 0 0-10.153-9.2c-1.015-.641-1.95.968-.939 1.606a37.622 37.622 0 0 1 14.881 17.956c3.24 8.24 3.76 17.224 3.2 25.977-.338 5.294-1.053 10.553-1.774 15.805a.964.964 0 0 0 .65 1.144.936.936 0 0 0 1.144-.65z" transform="translate(-228.791 -93.713)" fill="#f2f2f2"/><path id="f0043cfc-c9b9-4981-8afd-8c13c1b6f93f" data-name="Path 442" d="M926.958 782.148a14.336 14.336 0 0 1-12.49 6.447c-6.324-.3-11.596-4.713-16.34-8.9L884.091 767.3l9.29-.444c6.68-.32 13.532-.618 19.9 1.442s12.23 7.018 13.393 13.6" transform="translate(-228.791 -93.713)" fill="#e6e6e6"/><path id="b883c521-5e9e-4a38-b47c-4f8b0cd8c6cd" data-name="Path 443" d="M940.086 802.943c-6.3-11.156-13.618-23.555-26.685-27.518a29.779 29.779 0 0 0-11.224-1.159c-1.192.1-.894 1.94.3 1.837a27.665 27.665 0 0 1 17.912 4.74c5.051 3.437 8.983 8.216 12.311 13.285 2.04 3.1 3.865 6.341 5.691 9.573.58 1.032 2.286.287 1.695-.758z" transform="translate(-228.791 -93.713)" fill="#f2f2f2"/></g><g id="b241f6a5-c54d-499c-8ecd-4235a19d143f" data-name="Group 59"><circle id="bfaee8a8-2192-45bf-83cb-a2f223d41a02" data-name="Ellipse 5" cx="370.986" cy="370.985" r="15.986" fill="#C20000"/><path id="ae47602b-fb54-4e88-955d-49b260f35f7f" data-name="Path 40-3" d="M592.124 461.712c-.184 0-.333 1.193-.333 2.664s.15 2.665.333 2.665h15.72c.183.024.335-1.149.338-2.62a5.943 5.943 0 0 0-.328-2.708h-15.73z" transform="translate(-228.791 -93.713)" fill="#e6e6e6"/></g><g id="a1e1e52b-75f8-4aa9-8279-faf451e6aae1" data-name="Group 60"><circle id="fa3a3ce2-c232-40ee-81b4-25b83d5b931c" data-name="Ellipse 5-2" cx="370.986" cy="456.278" r="15.986" fill="#C20000"/><path id="aaaffa69-7c16-47ec-b12d-87139789d2df" data-name="Path 40-4" d="M592.124 547.005c-.184 0-.333 1.193-.333 2.664s.15 2.665.333 2.665h15.72c.183.024.335-1.149.338-2.62a5.943 5.943 0 0 0-.328-2.708h-15.73z" transform="translate(-228.791 -93.713)" fill="#e6e6e6"/></g><g id="fd2b54c2-3dec-4fb6-9f72-e6c667a136b8" data-name="Group 61"><circle id="abc19202-5605-459b-9c25-b430addb8839" data-name="Ellipse 5-3" cx="370.986" cy="541.536" r="15.986" fill="#C20000"/><path id="f69fbb38-8754-494b-94fa-96f6df4fd0e7" data-name="Path 40-5" d="M592.124 632.263c-.184 0-.333 1.193-.333 2.664s.15 2.665.333 2.665h15.72c.183.024.335-1.149.338-2.62a5.943 5.943 0 0 0-.328-2.708h-15.73z" transform="translate(-228.791 -93.713)" fill="#e6e6e6"/></g><path transform="rotate(-45 446.839 523.161)" fill="#fff" d="M670.356 260.342h8v67h-8z"/><path transform="rotate(45 673.083 -29.19)" fill="#fff" d="M670.356 260.342h8v67h-8z"/><path d="M319.05 549.848a10.056 10.056 0 0 0 5.389-14.447l23.565-26.864L329.608 506l-19.557 25.9a10.11 10.11 0 0 0 9 17.95z" transform="translate(-228.791 -93.713)" fill="#9f616a"/><path fill="#9f616a" d="m118.679 694.215-16.435-.001-7.819-63.394 24.257.001-.003 63.394z"/><path d="m351.662 803.86-52.995-.002v-.67a20.628 20.628 0 0 1 20.627-20.627h.002l32.367.001z" transform="translate(-228.791 -93.713)" fill="#2f2e41"/><path fill="#9f616a" d="m204.713 680.461-15.696 4.873-26.266-58.224 23.166-7.192 18.796 60.543z"/><path d="m442.232 788.147-50.611 15.713-.2-.64a20.628 20.628 0 0 1 13.583-25.816h.002l30.911-9.597z" transform="translate(-228.791 -93.713)" fill="#2f2e41"/><path id="ae9bdfa9-f7e0-4b2f-8168-ca8868d01318" data-name="Path 973" d="m334.884 495.656-24.34 27.878 19.055 1.715z" transform="translate(-228.791 -93.713)" fill="#e6e6e6"/><path id="b88343d2-9c47-4183-8a8a-427a73d8d9be" data-name="Path 975" d="M325.373 531.59s-8.455 4.226-9.512 23.25 3.171 68.7 3.171 68.7-4.227 22.194 0 42.274-4.227 93 1.057 93 32.762 3.171 33.82 0 2.113-50.729 2.113-50.729 8.455-24.308 0-39.1c0 0 29.521 51.549 48.615 90.89 4.18 8.61 35.933-1.058 30.65-10.57s-17.967-52.843-17.967-52.843-9.512-31.706-26.42-45.445l8.454-67.639s17.967-45.445 7.4-51.786-81.38-.003-81.38-.003z" transform="translate(-228.791 -93.713)" fill="#2f2e41"/><circle id="fdc24b21-a9e1-47f2-b2e4-7458730b7c21" data-name="Ellipse 182" cx="128.287" cy="238.129" r="27.478" fill="#a0616a"/><path id="ac268c91-41f4-49c7-bce6-773e5eb69fa2" data-name="Path 976" d="m387.727 361.434-34.16 20.08s-13.08 7.366-17.966 20.08c-5.208 13.55-2.18 32.628 0 36.99 4.227 8.455-1.773 29.592-1.773 29.592l-5.284 48.615s-19.023 17.966-4.227 20.08 41.217-1.057 57.07 0 33.82 3.171 28.535-7.4-11.625-17.967-5.284-39.1c4.962-16.54 4.747-78.383 4.42-104.5a21.025 21.025 0 0 0-10.212-17.767z" transform="translate(-228.791 -93.713)" fill="#e5e5e5"/><path id="aebed2c8-94ca-417e-8b11-27e17cbf3024" data-name="Path 980" d="m372.407 394.726 3.17 64.468-30.726 62.223-5.21-1.983 31.705-58.127z" transform="translate(-228.791 -93.713)" opacity=".1" style="isolation:isolate"/><path id="e13ea0c4-bc86-4025-9528-1665a42d3372" data-name="Path 982" d="M407.28 472.932v-7.4l-35.93 59.186z" transform="translate(-228.791 -93.713)" opacity=".1" style="isolation:isolate"/><path id="eb3190ba-6b3f-4b2b-91d1-1543e580b413" data-name="Path 983" d="m337.576 306.387-4.539-1.816s9.5-10.457 22.713-9.548l-3.717-4.092s9.085-3.637 17.345 5.91c4.342 5.02 9.365 10.92 12.5 17.564h4.865l-2.03 4.471 7.106 4.471-7.294-.8a24.74 24.74 0 0 1-.69 11.58l.2 3.533s-8.459-13.089-8.459-14.905v4.547s-4.543-4.092-4.543-6.82l-2.478 3.183-1.239-5-15.28 5 2.476-4.094-9.5 1.364 3.717-5s-10.737 5.91-11.15 10.912-5.78 11.366-5.78 11.366l-2.479-4.547s-3.716-20.459 8.256-27.279z" transform="translate(-228.791 -93.713)" fill="#2f2e41"/><path d="M355.354 552.839a10.056 10.056 0 0 0 2.738-15.174l18.422-30.62-18.553.767-14.65 28.96a10.11 10.11 0 0 0 12.043 16.067z" transform="translate(-228.791 -93.713)" fill="#9f616a"/><path id="a62f6567-f472-4931-86f9-ff652851a370" data-name="Path 981" d="m397.24 375.175 7.926-1.585s23.78 17.438 16.381 52.314-40.16 87.72-40.16 87.72-7.4 9.511-9.512 11.624-6.34 0-4.227 3.171-3.17 5.284-3.17 5.284-23.252 0-21.138-8.455 38.047-68.7 38.047-68.7l-5.284-56.013s-4.229-27.474 21.137-25.36z" transform="translate(-228.791 -93.713)" fill="#e5e5e5"/></svg>