<svg xmlns="http://www.w3.org/2000/svg" id="a3a44bd2-1d5c-46a0-ab88-fbd2ff893ca0" data-name="Layer 1" width="1100.501" height="691.707" viewBox="0 0 1100.501 691.707"><path d="M1150.25 388.237h-1.858v-50.915a29.468 29.468 0 0 0-29.469-29.469h-107.871a29.468 29.468 0 0 0-29.469 29.469v279.326a29.469 29.469 0 0 0 29.469 29.469h107.871a29.469 29.469 0 0 0 29.469-29.469V424.48h1.858z" transform="translate(-49.75 -104.147)" fill="#3f3d56"/><path d="M1142.121 339.053v278.92a22.011 22.011 0 0 1-22.01 22.01h-108.39a22.002 22.002 0 0 1-22-22.01v-278.92a22 22 0 0 1 22-22h13.15a10.46 10.46 0 0 0 9.68 14.4h61.8a10.44 10.44 0 0 0 9.68-14.4h14.08a22.009 22.009 0 0 1 22.01 22z" transform="translate(-49.75 -104.147)" fill="#d0cde1"/><path fill="#007200" d="M945.851 355.707h126v34h-126z"/><path d="M1126.601 487.853h-122a3.003 3.003 0 0 1-3-3v-30a3.003 3.003 0 0 1 3-3h122a3.003 3.003 0 0 1 3 3v30a3.003 3.003 0 0 1-3 3zm-122-34a1.001 1.001 0 0 0-1 1v30a1 1 0 0 0 1 1h122a1 1 0 0 0 1-1v-30a1.001 1.001 0 0 0-1-1z" transform="translate(-49.75 -104.147)" fill="#3f3d56"/><path fill="#3f3d56" d="M959.851 374.707h16v2h-16zM981.851 374.707h16v2h-16zM1003.851 374.707h16v2h-16zM1025.851 374.707h16v2h-16zM1047.851 374.707h16v2h-16z"/><path d="M1142.121 589.613v28.36a22.011 22.011 0 0 1-22.01 22.01h-108.39a22.002 22.002 0 0 1-22-22.01v-130.46z" transform="translate(-49.75 -104.147)" opacity=".1"/><path fill="#d0cde1" d="M99.851 459.707h473v232h-473z"/><path d="M502.351 795.853h-350.75a2.006 2.006 0 0 1-2-2v-228a2.006 2.006 0 0 1 2-2h4.44z" transform="translate(-49.75 -104.147)" opacity=".1"/><path fill="#3f3d56" d="M318.851 490.707h733v2h-733z"/><path d="M600.343 108.464h-209.49v-4.317h-94.99v4.317H85.508a14.17 14.17 0 0 0-14.17 14.17v286.857a14.17 14.17 0 0 0 14.17 14.17h514.834a14.17 14.17 0 0 0 14.17-14.17V122.635a14.17 14.17 0 0 0-14.17-14.17z" transform="translate(-49.75 -104.147)" fill="#3f3d56"/><path fill="#d0cde1" d="M40.591 29.357h505.17v284.98H40.591z"/><circle cx="292.744" cy="16.407" r="5.181" fill="#007200"/><path d="M240.601 239.853h-12a3.003 3.003 0 0 1-3-3v-12a3.003 3.003 0 0 1 3-3h12a3.003 3.003 0 0 1 3 3v12a3.003 3.003 0 0 1-3 3zm-12-16a1.001 1.001 0 0 0-1 1v12a1.001 1.001 0 0 0 1 1h12a1.001 1.001 0 0 0 1-1v-12a1.001 1.001 0 0 0-1-1z" transform="translate(-49.75 -104.147)" fill="#3f3d56"/><path fill="#3f3d56" d="M176.851 133.707h228v2h-228z"/><path fill="#007200" d="M345.851 188.707h53v16h-53z"/><path d="M452.601 304.853h-49a3.003 3.003 0 0 1-3-3v-12a3.003 3.003 0 0 1 3-3h49a3.003 3.003 0 0 1 3 3v12a3.003 3.003 0 0 1-3 3zm-49-16a1.001 1.001 0 0 0-1 1v12a1.001 1.001 0 0 0 1 1h49a1.001 1.001 0 0 0 1-1v-12a1.001 1.001 0 0 0-1-1z" transform="translate(-49.75 -104.147)" fill="#3f3d56"/><path fill="#007200" d="M703.851 206.707h100v70h-100z"/><path d="M863.601 375.353h-96a4.004 4.004 0 0 1-4-4v-66a4.004 4.004 0 0 1 4-4h96a4.004 4.004 0 0 1 4 4v66a4.004 4.004 0 0 1-4 4zm-96-70v66h96.003l-.003-66z" transform="translate(-49.75 -104.147)" fill="#3f3d56"/><path d="M852.601 302.853h-4a33 33 0 1 0-66 0h-4a37 37 0 1 1 74 0zM825.601 330.353a10 10 0 1 0-15.294 8.473v10.733a5.294 5.294 0 0 0 5.294 5.294 5.294 5.294 0 0 0 5.294-5.294v-10.733a9.983 9.983 0 0 0 4.706-8.473z" transform="translate(-49.75 -104.147)" fill="#3f3d56"/><path fill="#3f3d56" d="M284.351 562.707h16v2h-16zM306.351 562.707h16v2h-16zM328.351 562.707h16v2h-16zM350.351 562.707h16v2h-16zM372.351 562.707h16v2h-16z"/><path d="M643.6 778.854H174.602a4.004 4.004 0 0 1-4-4v-228a4.004 4.004 0 0 1 4-4h469a4.004 4.004 0 0 1 4 4v228a4.004 4.004 0 0 1-4 4zm-468.999-232v228h469.003l-.003-228z" transform="translate(-49.75 -104.147)" fill="#3f3d56"/><circle cx="145.851" cy="470.707" r="6" fill="#3f3d56"/><circle cx="166.851" cy="470.707" r="6" fill="#3f3d56"/><circle cx="187.851" cy="470.707" r="6" fill="#3f3d56"/><path d="M453.601 680.853h-135a3.003 3.003 0 0 1-3-3v-34a3.003 3.003 0 0 1 3-3h135a3.003 3.003 0 0 1 3 3v34a3.003 3.003 0 0 1-3 3zm-135-38a1.001 1.001 0 0 0-1 1v34a1.001 1.001 0 0 0 1 1h135a1.001 1.001 0 0 0 1-1v-34a1.001 1.001 0 0 0-1-1z" transform="translate(-49.75 -104.147)" fill="#3f3d56"/><circle cx="437.851" cy="559.707" r="18" fill="#007200"/><path d="M493.601 679.853a19 19 0 1 1 19-19 19.022 19.022 0 0 1-19 19zm0-36a17 17 0 1 0 17 17 17.019 17.019 0 0 0-17-17z" transform="translate(-49.75 -104.147)" fill="#3f3d56"/><path fill="#3f3d56" d="m444.118 563.803-9.681-9.682 2.828-2.828 6.319 6.318 17.632-25.056 3.271 2.303-20.369 28.945z"/><path opacity=".1" d="M433.761 314.337H40.591V50.947l393.17 263.39z"/><path d="M628.697 413.298h-49.302v-3.552a.704.704 0 0 0-.704-.704h-16.904a.704.704 0 0 0-.704.704v3.552h-10.565v-3.552a.704.704 0 0 0-.704-.704H532.91a.704.704 0 0 0-.704.704v3.552h-10.565v-3.552a.704.704 0 0 0-.704-.704h-16.904a.704.704 0 0 0-.704.704v3.552h-10.565v-3.552a.704.704 0 0 0-.704-.704h-16.903a.704.704 0 0 0-.705.704v3.552h-10.565v-3.552a.704.704 0 0 0-.704-.704H446.28a.704.704 0 0 0-.705.704v3.552H435.01v-3.552a.704.704 0 0 0-.704-.704h-16.903a.704.704 0 0 0-.705.704v3.552h-10.564v-3.552a.704.704 0 0 0-.705-.704H273.018a.704.704 0 0 0-.704.704v3.552h-10.565v-3.552a.704.704 0 0 0-.705-.704h-16.903a.704.704 0 0 0-.704.704v3.552h-10.565v-3.552a.704.704 0 0 0-.704-.704h-16.904a.704.704 0 0 0-.704.704v3.552h-10.565v-3.552a.704.704 0 0 0-.704-.704h-16.904a.704.704 0 0 0-.704.704v3.552h-10.565v-3.552a.704.704 0 0 0-.704-.704H157.51a.704.704 0 0 0-.704.704v3.552H146.24v-3.552a.704.704 0 0 0-.704-.704h-16.904a.704.704 0 0 0-.704.704v3.552h-10.565v-3.552a.704.704 0 0 0-.704-.704H99.756a.704.704 0 0 0-.704.704v3.552H66.653a16.904 16.904 0 0 0-16.903 16.904v7.643a16.904 16.904 0 0 0 16.903 16.904h562.044a16.904 16.904 0 0 0 16.904-16.904v-7.643a16.904 16.904 0 0 0-16.904-16.904zM474.601 321.853h-264a3.003 3.003 0 0 1-3-3v-110a3.003 3.003 0 0 1 3-3h264a3.003 3.003 0 0 1 3 3v110a3.003 3.003 0 0 1-3 3zm-264-114a1.001 1.001 0 0 0-1 1v110a1.001 1.001 0 0 0 1 1h264a1.001 1.001 0 0 0 1-1v-110a1.001 1.001 0 0 0-1-1z" transform="translate(-49.75 -104.147)" fill="#3f3d56"/><path d="M240.601 269.853h-12a3.003 3.003 0 0 1-3-3v-12a3.003 3.003 0 0 1 3-3h12a3.003 3.003 0 0 1 3 3v12a3.003 3.003 0 0 1-3 3zm-12-16a1.001 1.001 0 0 0-1 1v12a1.001 1.001 0 0 0 1 1h12a1.001 1.001 0 0 0 1-1v-12a1.001 1.001 0 0 0-1-1z" transform="translate(-49.75 -104.147)" fill="#3f3d56"/><path fill="#3f3d56" d="M176.851 163.707h228v2h-228zM264.851 269.707h733v2h-733z"/><circle cx="264.851" cy="269.707" r="14" fill="#3f3d56"/><circle cx="997.851" cy="271.707" r="11" fill="#3f3d56"/><circle cx="1051.851" cy="492.707" r="11" fill="#3f3d56"/><circle cx="321.851" cy="492.707" r="11" fill="#3f3d56"/></svg>