<svg xmlns="http://www.w3.org/2000/svg" id="b34823bb-54c5-4248-96df-16f3b0e34aaf" data-name="Layer 1" width="965.998" height="727.778" viewBox="0 0 965.998 727.778"><path d="M843.996 259.058h-3.998V149.513a63.402 63.402 0 0 0-63.402-63.402H544.509a63.402 63.402 0 0 0-63.402 63.402v600.974a63.402 63.402 0 0 0 63.402 63.402h232.087a63.402 63.402 0 0 0 63.402-63.402V337.035h3.998z" transform="translate(-117 -86.111)" fill="#3f3d56"/><path d="M779.154 102.606h-30.295a22.495 22.495 0 0 1-20.827 30.99h-132.96a22.495 22.495 0 0 1-20.827-30.99H545.95a47.348 47.348 0 0 0-47.348 47.348v600.092a47.348 47.348 0 0 0 47.348 47.348h233.204a47.348 47.348 0 0 0 47.348-47.348V149.954a47.348 47.348 0 0 0-47.348-47.348z" transform="translate(-117 -86.111)" fill="#fff"/><ellipse cx="593.858" cy="272.708" rx="42" ry="4" fill="#e6e6e6"/><path fill="#007200" d="M965.998 99.868H579.346v126.931h14.646v33.198l33.197-33.198h338.809V99.868z"/><path fill="#fff" d="M622.381 142.852h175.821v5.336H622.381zM622.381 161.31h306.441v5.336H622.381zM622.381 179.768h306.141v5.336H622.381z"/><path fill="#007200" d="M867.219 482.708H558.58v101.321h11.691v26.499l26.499-26.499h270.449V482.708z"/><path fill="#fff" d="M592.932 517.019h140.346v4.259H592.932zM592.932 531.753h244.612v4.259H592.932zM592.932 546.487h244.372v4.259H592.932z"/><ellipse cx="570.163" cy="620.675" rx="33.526" ry="3.193" fill="#e6e6e6"/><ellipse cx="477.858" cy="420.708" rx="42" ry="4" fill="#e6e6e6"/><path fill="#007200" d="M220.435 298.894h271.907v89.263h-10.3v23.345l-23.345-23.345H220.435v-89.263z"/><path fill="#fff" d="M248.638 328.435h123.643v3.752H248.638zM248.638 341.416h215.499v3.752H248.638zM248.638 354.396h215.288v3.752H248.638z"/><path d="M204.985 602.74a9.789 9.789 0 1 0 16.93-9.831 10.536 10.536 0 0 0-.923-1.308l8.235-58.69.246-1.758 1.673-11.976.246-1.726-.911.043-15.954.729-4.278.193-.536 10.925-3.034 61.424a9.775 9.775 0 0 0-1.694 11.976z" transform="translate(-117 -86.111)" fill="#a0616a"/><path d="m229.426 531.687-20.258-1.858a3.999 3.999 0 0 1-3.607-4.329l3.757-42.126a15.36 15.36 0 1 1 30.495 3.6l-6.074 41.32a3.992 3.992 0 0 1-3.944 3.41c-.122 0-.245-.005-.37-.017z" transform="translate(-117 -86.111)" fill="#ccc"/><path d="M214.073 497.651a28.215 28.215 0 0 1 10.377-32.473c7.639-5.226 18.093-7.103 29.35 6.3 22.515 26.803 28.412 56.287 28.412 56.287l-46.102 7.505s-15.68-19.164-22.037-37.619z" transform="translate(-117 -86.111)" fill="#ccc"/><path fill="#a0616a" d="M171.635 713.464h13.144l6.253-50.7-19.399.001.002 50.699z"/><path d="M285.82 795.82h41.31v15.96h-28.564a12.747 12.747 0 0 1-12.747-12.747v-3.214z" transform="rotate(179.997 247.975 760.743)" fill="#2f2e41"/><path fill="#a0616a" d="m63.569 702.001 12.48 4.125 21.85-46.175-18.419-6.088-15.911 48.138z"/><path d="M175.526 789.741h41.31v15.961h-28.563a12.747 12.747 0 0 1-12.747-12.747v-3.214z" transform="rotate(-161.71 130.75 764.083)" fill="#2f2e41"/><circle cx="243.011" cy="425.552" r="26.333" transform="rotate(-28.663 15.986 611.475)" fill="#a0616a"/><path d="m266.067 785.461-12.207-80.566a3.752 3.752 0 0 0-7.357-.322l-18.588 76.78a4.86 4.86 0 0 1-5.455 3.628l-51.276-8.24a4.825 4.825 0 0 1-3.852-6.165l66.86-220.43a3.755 3.755 0 0 0 .066-1.931l-2.226-9.647a4.807 4.807 0 0 1 2.494-5.375c9.105-4.646 32.16-14.303 49.567-3.724a4.879 4.879 0 0 1 2.23 3.138l52.23 245.485a4.825 4.825 0 0 1-4.288 5.81l-62.997 5.641q-.218.02-.432.02a4.833 4.833 0 0 1-4.769-4.102zM225.55 406.947a19.921 19.921 0 0 0 5.206-4.524 6.757 6.757 0 0 0 1.039-6.537c-1.33-2.935-5.284-3.865-8.347-2.864s-5.43 3.4-7.669 5.718c-1.972 2.042-4 4.173-4.936 6.853s-.455 6.077 1.872 7.703c2.283 1.596 5.566.942 7.762-.771s3.556-4.257 4.852-6.722z" transform="translate(-117 -86.111)" fill="#2f2e41"/><path d="M216.631 399.444c-.146-7.42-8.603-12.74-15.907-11.425s-12.918 7.542-15.728 14.41c-5.938 14.513-1.48 31.071 4.24 45.67s12.802 29.418 11.967 45.076a47.094 47.094 0 0 1-27.355 39.674c8.243 3.737 18.096-.123 25.022-5.948 15.384-12.936 21.321-35.966 14.11-54.727-3.556-9.254-9.823-17.17-14.717-25.792s-8.483-18.782-5.957-28.368 13.278-17.35 22.47-13.637z" transform="translate(-117 -86.111)" fill="#2f2e41"/><path d="M244.59 437.238c-2.295-3.88-4.613-8.973-.416-12.363a8.646 8.646 0 0 1 6.487-1.716c4.73.57 9.882.806 14.46-.913a13.556 13.556 0 0 0 7.865-7.066c2.363-5.6-.597-12.407-5.538-15.947a18.654 18.654 0 0 0-20.648-.365c-6.4-2.827-14.166-1.57-19.98 2.321s-9.795 10.124-11.956 16.779a32.386 32.386 0 0 0-.99 17.813 26.474 26.474 0 0 0 16.422 18.097 9.533 9.533 0 0 0 9.416-1.397s3.63-3.168 4.765-6.984c.873-2.931 1.34-6.187.113-8.26z" transform="translate(-117 -86.111)" fill="#2f2e41"/><path d="M322.71 460.734a11.284 11.284 0 0 0-.257 1.759l-46.057 26.57-11.195-6.445-11.934 15.624 18.71 13.335a8.577 8.577 0 0 0 10.29-.25l47.492-37.468a11.254 11.254 0 1 0-7.05-13.125z" transform="translate(-117 -86.111)" fill="#a0616a"/><path d="m274.856 490.321-14.885 19.292a4.825 4.825 0 0 1-7.295.4l-16.851-17.499a13.4 13.4 0 0 1 16.432-21.168l21.135 11.818a4.825 4.825 0 0 1 1.464 7.157zM426.274 813.889H118.253a1.252 1.252 0 0 1 0-2.504h308.02a1.252 1.252 0 0 1 0 2.504z" transform="translate(-117 -86.111)" fill="#ccc"/></svg>